<mxfile host="app.diagrams.net" modified="2023-08-29T15:22:46.093Z" agent="Mozilla/5.0 (Windows NT 10.0; Win64; x64) AppleWebKit/537.36 (KHTML, like Gecko) Chrome/116.0.0.0 Safari/537.36" etag="6KGipz6unv3Dx1eEktHl" version="21.6.6" type="device">
  <diagram name="Page-1" id="fiZ1tPu8VJnbvqT5lMuL">
    <mxGraphModel dx="676" dy="984" grid="1" gridSize="10" guides="1" tooltips="1" connect="1" arrows="1" fold="1" page="1" pageScale="1" pageWidth="827" pageHeight="1169" math="0" shadow="0">
      <root>
        <mxCell id="0" />
        <mxCell id="1" parent="0" />
      </root>
    </mxGraphModel>
  </diagram>
</mxfile>
